<?xml version="1.0" encoding="UTF-8" standalone="no"?>
<!-- Creator: fig2dev Version 3.2 Patchlevel 5-alpha5 -->
<!-- CreationDate: Fri Jan  5 17:31:30 2007 -->
<!-- Magnification: 1.050 -->
<svg
   xmlns:dc="http://purl.org/dc/elements/1.1/"
   xmlns:cc="http://creativecommons.org/ns#"
   xmlns:rdf="http://www.w3.org/1999/02/22-rdf-syntax-ns#"
   xmlns:svg="http://www.w3.org/2000/svg"
   xmlns="http://www.w3.org/2000/svg"
   xmlns:sodipodi="http://sodipodi.sourceforge.net/DTD/sodipodi-0.dtd"
   xmlns:inkscape="http://www.inkscape.org/namespaces/inkscape"
   width="3.2in"
   height="3.8in"
   viewBox="-201 932 3804 4560"
   id="svg2"
   sodipodi:version="0.32"
   inkscape:version="0.46"
   sodipodi:docname="Partially_built_tableau.svg"
   inkscape:output_extension="org.inkscape.output.svg.inkscape">
  <metadata
     id="metadata49">
    <rdf:RDF>
      <cc:Work
         rdf:about="">
        <dc:format>image/svg+xml</dc:format>
        <dc:type
           rdf:resource="http://purl.org/dc/dcmitype/StillImage" />
      </cc:Work>
    </rdf:RDF>
  </metadata>
  <defs
     id="defs47">
    <inkscape:perspective
       sodipodi:type="inkscape:persp3d"
       inkscape:vp_x="0 : 171 : 1"
       inkscape:vp_y="0 : 1000 : 0"
       inkscape:vp_z="288 : 171 : 1"
       inkscape:persp3d-origin="144 : 114 : 1"
       id="perspective51" />
  </defs>
  <sodipodi:namedview
     inkscape:window-height="701"
     inkscape:window-width="992"
     inkscape:pageshadow="2"
     inkscape:pageopacity="0.0"
     guidetolerance="10.0"
     gridtolerance="10.0"
     objecttolerance="10.0"
     borderopacity="1.0"
     bordercolor="#666666"
     pagecolor="#ffffff"
     id="base"
     showgrid="false"
     inkscape:zoom="1.4561404"
     inkscape:cx="42.226527"
     inkscape:cy="173.29749"
     inkscape:window-x="20"
     inkscape:window-y="42"
     inkscape:current-layer="svg2" />
  <rect
     style="opacity:1;fill:#ffffff;fill-opacity:1;fill-rule:nonzero;stroke:none;stroke-width:2.17499995;stroke-miterlimit:4;stroke-dasharray:none;stroke-opacity:1"
     id="rect2397"
     width="3840"
     height="4560"
     x="-219"
     y="932" />
  <polyline
     id="polyline8"
     style="stroke:#000000;stroke-width:32;stroke-linecap:butt;stroke-linejoin:miter"
     points="1795,1370 1795,1889" />
  <polyline
     id="polyline10"
     style="stroke:#000000;stroke-width:32;stroke-linecap:butt;stroke-linejoin:miter"
     points="1795,2125 1795,2645" />
  <polyline
     id="polyline12"
     style="stroke:#000000;stroke-width:32;stroke-linecap:butt;stroke-linejoin:miter"
     points="1464,2881 944,3401" />
  <polyline
     id="polyline14"
     style="stroke:#000000;stroke-width:32;stroke-linecap:butt;stroke-linejoin:miter"
     points="2125,2881 2645,3401" />
  <polyline
     id="polyline16"
     style="stroke:#000000;stroke-width:32;stroke-linecap:butt;stroke-linejoin:miter"
     points="2740,3685 2740,4204" />
  <polyline
     id="polyline18"
     style="stroke:#000000;stroke-width:32;stroke-linecap:butt;stroke-linejoin:miter"
     points="2740,4488 2740,5007" />
  <polyline
     id="polyline20"
     style="stroke:#000000;stroke-width:32;stroke-linecap:butt;stroke-linejoin:miter"
     points="708,3637 188,4157" />
  <polyline
     id="polyline22"
     style="stroke:#000000;stroke-width:32;stroke-linecap:butt;stroke-linejoin:miter"
     points="992,3637 1511,4157" />
  <path
     style="font-size:202px;font-style:normal;font-weight:normal;text-anchor:middle;fill:#000000;stroke:#000000;stroke-width:0.025in;font-family:Times"
     d="M 1573.9146,2036.1797 L 1557.147,2036.1797 L 1557.147,1992.9785 L 1478.438,1992.9785 L 1478.438,1976.4082 L 1573.9146,1976.4082 L 1573.9146,2036.1797 M 1723.2446,2065.0791 C 1716.669,2070.6683 1710.3237,2074.6136 1704.2085,2076.915 C 1698.159,2079.2165 1691.6492,2080.3672 1684.6792,2080.3672 C 1673.172,2080.3672 1664.3279,2077.5726 1658.147,2071.9834 C 1651.966,2066.3285 1648.8755,2059.1283 1648.8755,2050.3828 C 1648.8755,2045.2539 1650.0262,2040.5853 1652.3276,2036.377 C 1654.6948,2032.1029 1657.7524,2028.6836 1661.5005,2026.1191 C 1665.3143,2023.5547 1669.5884,2021.615 1674.3228,2020.2998 C 1677.8077,2019.3793 1683.0682,2018.4916 1690.104,2017.6367 C 1704.4386,2015.9271 1714.9923,2013.8887 1721.7651,2011.5215 C 1721.8308,2009.0886 1721.8637,2007.5434 1721.8638,2006.8857 C 1721.8637,1999.6527 1720.1869,1994.5567 1716.8335,1991.5977 C 1712.2963,1987.5867 1705.5564,1985.5811 1696.6138,1985.5811 C 1688.2628,1985.5811 1682.0818,1987.0606 1678.0708,1990.0195 C 1674.1255,1992.9128 1671.1994,1998.0746 1669.2925,2005.5049 L 1651.9331,2003.1377 C 1653.5112,1995.7074 1656.1085,1989.7237 1659.7251,1985.1865 C 1663.3416,1980.5838 1668.5691,1977.0659 1675.4077,1974.6328 C 1682.2462,1972.1342 1690.1697,1970.8849 1699.1782,1970.8848 C 1708.1209,1970.8849 1715.3868,1971.937 1720.9761,1974.041 C 1726.5652,1976.1453 1730.6749,1978.8084 1733.3052,1982.0303 C 1735.9353,1985.1866 1737.7764,1989.1977 1738.8286,1994.0635 C 1739.4203,1997.0883 1739.7162,2002.546 1739.7163,2010.4365 L 1739.7163,2034.1084 C 1739.7162,2050.613 1740.0779,2061.0681 1740.8013,2065.4736 C 1741.5902,2069.8135 1743.1026,2073.9889 1745.3384,2078 L 1726.7954,2078 C 1724.9542,2074.3177 1723.7706,2070.0108 1723.2446,2065.0791 M 1721.7651,2025.4287 C 1715.3211,2028.059 1705.655,2030.2946 1692.7671,2032.1357 C 1685.4682,2033.1879 1680.3064,2034.3715 1677.2817,2035.6865 C 1674.257,2037.0017 1671.9227,2038.9414 1670.2788,2041.5059 C 1668.6349,2044.0046 1667.813,2046.7992 1667.813,2049.8896 C 1667.813,2054.624 1669.5884,2058.5694 1673.1392,2061.7256 C 1676.7557,2064.8818 1682.0161,2066.46 1688.9204,2066.46 C 1695.7589,2066.46 1701.8412,2064.9805 1707.1675,2062.0215 C 1712.4936,2058.9968 1716.406,2054.8871 1718.9048,2049.6924 C 1720.8116,2045.6813 1721.7651,2039.7634 1721.7651,2031.9385 L 1721.7651,2025.4287 M 1877.115,2060.628 L 1830.251,1960.638 C 1829.039,1957.81 1826.211,1956.8 1823.383,1956.8 C 1821.767,1956.8 1820.151,1957.204 1818.737,1957.81 C 1815.909,1959.022 1813.485,1961.446 1813.485,1964.678 C 1813.485,1965.89 1813.687,1966.9 1814.293,1968.112 L 1865.399,2073.758 C 1868.025,2079.01 1871.459,2081.636 1877.115,2081.636 C 1882.771,2081.636 1886.205,2079.01 1888.831,2073.758 L 1939.937,1968.112 C 1940.543,1966.9 1940.745,1965.89 1940.745,1964.678 C 1940.745,1961.446 1938.321,1959.022 1935.493,1957.81 C 1934.079,1957.204 1932.463,1956.8 1930.847,1956.8 C 1928.019,1956.8 1925.191,1957.81 1923.979,1960.638 L 1877.115,2060.628 M 2094.104,2039.6318 L 2111.562,2041.9004 C 2109.655,2053.9336 2104.7563,2063.3695 2096.8657,2070.208 C 2089.0408,2076.9808 2079.4076,2080.3672 2067.9663,2080.3672 C 2053.6316,2080.3672 2042.0916,2075.6986 2033.3462,2066.3613 C 2024.6665,2056.9584 2020.3267,2043.5114 2020.3267,2026.0205 C 2020.3267,2014.7107 2022.2007,2004.8145 2025.9487,1996.332 C 2029.6968,1987.8497 2035.3846,1981.5043 2043.0122,1977.2959 C 2050.7055,1973.0219 2059.0564,1970.8849 2068.0649,1970.8848 C 2079.4405,1970.8849 2088.7449,1973.7781 2095.978,1979.5645 C 2103.211,1985.2852 2107.8467,1993.4389 2109.8853,2004.0254 L 2092.6245,2006.6885 C 2090.9806,1999.6527 2088.0544,1994.3595 2083.8462,1990.8086 C 2079.7035,1987.2579 2074.6733,1985.4825 2068.7554,1985.4824 C 2059.8126,1985.4825 2052.5467,1988.7045 2046.9575,1995.1484 C 2041.3683,2001.5268 2038.5737,2011.6531 2038.5737,2025.5273 C 2038.5737,2039.599 2041.2697,2049.8239 2046.6616,2056.2021 C 2052.0535,2062.5804 2059.0893,2065.7695 2067.769,2065.7695 C 2074.739,2065.7695 2080.5584,2063.6325 2085.2271,2059.3584 C 2089.8956,2055.0843 2092.8546,2048.5088 2094.104,2039.6318"
     id="text28" />
  <path
     style="font-size:202px;font-style:normal;font-weight:normal;text-anchor:middle;fill:#000000;stroke:#000000;stroke-width:0.025in;font-family:Times"
     d="M 1489.7808,2792.1797 L 1473.0132,2792.1797 L 1473.0132,2748.9785 L 1394.3042,2748.9785 L 1394.3042,2732.4082 L 1489.7808,2732.4082 L 1489.7808,2792.1797 M 1639.1108,2795.6318 L 1656.5688,2797.9004 C 1654.6618,2809.9336 1649.7631,2819.3695 1641.8726,2826.208 C 1634.0476,2832.9808 1624.4145,2836.3672 1612.9731,2836.3672 C 1598.6385,2836.3672 1587.0984,2831.6986 1578.353,2822.3613 C 1569.6733,2812.9584 1565.3335,2799.5114 1565.3335,2782.0205 C 1565.3335,2770.7107 1567.2075,2760.8145 1570.9556,2752.332 C 1574.7036,2743.8497 1580.3914,2737.5043 1588.019,2733.2959 C 1595.7124,2729.0219 1604.0633,2726.8849 1613.0718,2726.8848 C 1624.4474,2726.8849 1633.7517,2729.7781 1640.9849,2735.5645 C 1648.2178,2741.2852 1652.8536,2749.4389 1654.8921,2760.0254 L 1637.6313,2762.6885 C 1635.9874,2755.6527 1633.0613,2750.3595 1628.853,2746.8086 C 1624.7104,2743.2579 1619.6801,2741.4825 1613.7622,2741.4824 C 1604.8195,2741.4825 1597.5535,2744.7045 1591.9644,2751.1484 C 1586.3751,2757.5268 1583.5805,2767.6531 1583.5806,2781.5273 C 1583.5805,2795.599 1586.2765,2805.8239 1591.6685,2812.2021 C 1597.0603,2818.5804 1604.0961,2821.7695 1612.7759,2821.7695 C 1619.7459,2821.7695 1625.5652,2819.6325 1630.2339,2815.3584 C 1634.9024,2811.0843 1637.8614,2804.5088 1639.1108,2795.6318 M 1781.9343,2816.628 L 1735.0703,2716.638 C 1733.8583,2713.81 1731.0303,2712.8 1728.2023,2712.8 C 1726.5863,2712.8 1724.9703,2713.204 1723.5563,2713.81 C 1720.7283,2715.022 1718.3043,2717.446 1718.3043,2720.678 C 1718.3043,2721.89 1718.5063,2722.9 1719.1123,2724.112 L 1770.2183,2829.758 C 1772.8443,2835.01 1776.2783,2837.636 1781.9343,2837.636 C 1787.5903,2837.636 1791.0243,2835.01 1793.6503,2829.758 L 1844.7563,2724.112 C 1845.3623,2722.9 1845.5643,2721.89 1845.5643,2720.678 C 1845.5643,2717.446 1843.1403,2715.022 1840.3123,2713.81 C 1838.8983,2713.204 1837.2823,2712.8 1835.6663,2712.8 C 1832.8383,2712.8 1830.0103,2713.81 1828.7983,2716.638 L 1781.9343,2816.628 M 2023.9761,2792.1797 L 2007.2085,2792.1797 L 2007.2085,2748.9785 L 1928.4995,2748.9785 L 1928.4995,2732.4082 L 2023.9761,2732.4082 L 2023.9761,2792.1797 M 2121.3267,2834 L 2104.855,2834 L 2104.855,2689.4043 L 2122.6089,2689.4043 L 2122.6089,2740.9893 C 2130.1049,2731.5864 2139.6723,2726.8849 2151.311,2726.8848 C 2157.755,2726.8849 2163.8373,2728.2 2169.5581,2730.8301 C 2175.3445,2733.3946 2180.0789,2737.044 2183.7612,2741.7783 C 2187.5092,2746.447 2190.4353,2752.102 2192.5396,2758.7432 C 2194.6436,2765.3845 2195.6957,2772.4861 2195.6958,2780.0479 C 2195.6957,2797.9991 2191.2572,2811.8734 2182.3804,2821.6709 C 2173.5033,2831.4684 2162.851,2836.3672 2150.4233,2836.3672 C 2138.0613,2836.3672 2128.3624,2831.2054 2121.3267,2820.8818 L 2121.3267,2834 M 2121.1294,2780.8369 C 2121.1294,2793.3962 2122.839,2802.4704 2126.2583,2808.0596 C 2131.8475,2817.1996 2139.4093,2821.7695 2148.9438,2821.7695 C 2156.7029,2821.7695 2163.4099,2818.416 2169.0649,2811.709 C 2174.7198,2804.9362 2177.5473,2794.8757 2177.5474,2781.5273 C 2177.5473,2767.8503 2174.8184,2757.7569 2169.3608,2751.2471 C 2163.9688,2744.7374 2157.4262,2741.4825 2149.7329,2741.4824 C 2141.9737,2741.4825 2135.2667,2744.8689 2129.6118,2751.6416 C 2123.9568,2758.3487 2121.1294,2768.0805 2121.1294,2780.8369"
     id="text30" />
  <path
     style="font-size:202px;font-style:normal;font-weight:normal;text-anchor:middle;fill:#000000;stroke:#000000;stroke-width:0.025in;font-family:Times"
     d="M 812.69592,3548.1797 L 795.92834,3548.1797 L 795.92834,3504.9785 L 717.21936,3504.9785 L 717.21936,3488.4082 L 812.69592,3488.4082 L 812.69592,3548.1797 M 962.026,3551.6318 L 979.48401,3553.9004 C 977.57701,3565.9336 972.67825,3575.3695 964.78772,3582.208 C 956.96277,3588.9808 947.32964,3592.3672 935.88831,3592.3672 C 921.55363,3592.3672 910.0136,3587.6986 901.26819,3578.3613 C 892.58849,3568.9584 888.24865,3555.5114 888.24866,3538.0205 C 888.24865,3526.7107 890.12267,3516.8145 893.87073,3508.332 C 897.61876,3499.8497 903.30658,3493.5043 910.9342,3489.2959 C 918.62753,3485.0219 926.97843,3482.8849 935.98694,3482.8848 C 947.36252,3482.8849 956.66688,3485.7781 963.90002,3491.5645 C 971.13301,3497.2852 975.76874,3505.4389 977.80725,3516.0254 L 960.54651,3518.6885 C 958.90255,3511.6527 955.97645,3506.3595 951.76819,3502.8086 C 947.62554,3499.2579 942.59527,3497.4825 936.67737,3497.4824 C 927.73461,3497.4825 920.46867,3500.7045 914.87952,3507.1484 C 909.29029,3513.5268 906.4957,3523.6531 906.49573,3537.5273 C 906.4957,3551.599 909.19166,3561.8239 914.58362,3568.2021 C 919.97551,3574.5804 927.01131,3577.7695 935.69104,3577.7695 C 942.66103,3577.7695 948.48036,3575.6325 953.14905,3571.3584 C 957.81759,3567.0843 960.77657,3560.5088 962.026,3551.6318"
     id="text32" />
  <path
     style="font-size:202px;font-style:normal;font-weight:normal;text-anchor:middle;fill:#000000;stroke:#000000;stroke-width:0.025in;font-family:Times"
     d="M 2701.8784,3548.1797 L 2685.1108,3548.1797 L 2685.1108,3504.9785 L 2606.4019,3504.9785 L 2606.4019,3488.4082 L 2701.8784,3488.4082 L 2701.8784,3548.1797 M 2799.229,3590 L 2782.7573,3590 L 2782.7573,3445.4043 L 2800.5112,3445.4043 L 2800.5112,3496.9893 C 2808.0073,3487.5864 2817.5747,3482.8849 2829.2134,3482.8848 C 2835.6573,3482.8849 2841.7397,3484.2 2847.4604,3486.8301 C 2853.2468,3489.3946 2857.9812,3493.044 2861.6636,3497.7783 C 2865.4115,3502.447 2868.3376,3508.102 2870.4419,3514.7432 C 2872.546,3521.3845 2873.598,3528.4861 2873.5981,3536.0479 C 2873.598,3553.9991 2869.1596,3567.8734 2860.2827,3577.6709 C 2851.4057,3587.4684 2840.7533,3592.3672 2828.3257,3592.3672 C 2815.9637,3592.3672 2806.2648,3587.2054 2799.229,3576.8818 L 2799.229,3590 M 2799.0317,3536.8369 C 2799.0317,3549.3962 2800.7413,3558.4704 2804.1606,3564.0596 C 2809.7498,3573.1996 2817.3116,3577.7695 2826.8462,3577.7695 C 2834.6052,3577.7695 2841.3123,3574.416 2846.9673,3567.709 C 2852.6221,3560.9362 2855.4496,3550.8757 2855.4497,3537.5273 C 2855.4496,3523.8503 2852.7208,3513.7569 2847.2632,3507.2471 C 2841.8712,3500.7374 2835.3285,3497.4825 2827.6353,3497.4824 C 2819.8761,3497.4825 2813.1691,3500.8689 2807.5142,3507.6416 C 2801.8592,3514.3487 2799.0317,3524.0805 2799.0317,3536.8369"
     id="text34" />
  <path
     style="font-size:202px;font-style:normal;font-weight:normal;text-anchor:middle;fill:#000000;stroke:#000000;stroke-width:0.025in;font-family:Times"
     d="M 1635.5601,1309.0791 C 1628.9845,1314.6683 1622.6391,1318.6136 1616.5239,1320.915 C 1610.4744,1323.2165 1603.9646,1324.3672 1596.9946,1324.3672 C 1585.4874,1324.3672 1576.6434,1321.5726 1570.4624,1315.9834 C 1564.2814,1310.3285 1561.1909,1303.1283 1561.1909,1294.3828 C 1561.1909,1289.2539 1562.3416,1284.5853 1564.6431,1280.377 C 1567.0102,1276.1029 1570.0679,1272.6836 1573.8159,1270.1191 C 1577.6297,1267.5547 1581.9038,1265.615 1586.6382,1264.2998 C 1590.1232,1263.3793 1595.3836,1262.4916 1602.4194,1261.6367 C 1616.754,1259.9271 1627.3077,1257.8887 1634.0806,1255.5215 C 1634.1462,1253.0886 1634.1791,1251.5434 1634.1792,1250.8857 C 1634.1791,1243.6527 1632.5024,1238.5567 1629.1489,1235.5977 C 1624.6117,1231.5867 1617.8718,1229.5811 1608.9292,1229.5811 C 1600.5782,1229.5811 1594.3973,1231.0606 1590.3862,1234.0195 C 1586.4409,1236.9128 1583.5148,1242.0746 1581.6079,1249.5049 L 1564.2485,1247.1377 C 1565.8266,1239.7074 1568.424,1233.7237 1572.0405,1229.1865 C 1575.657,1224.5838 1580.8846,1221.0659 1587.7231,1218.6328 C 1594.5616,1216.1342 1602.4851,1214.8849 1611.4937,1214.8848 C 1620.4363,1214.8849 1627.7022,1215.937 1633.2915,1218.041 C 1638.8806,1220.1453 1642.9903,1222.8084 1645.6206,1226.0303 C 1648.2507,1229.1866 1650.0919,1233.1977 1651.144,1238.0635 C 1651.7357,1241.0883 1652.0316,1246.546 1652.0317,1254.4365 L 1652.0317,1278.1084 C 1652.0316,1294.613 1652.3933,1305.0681 1653.1167,1309.4736 C 1653.9057,1313.8135 1655.418,1317.9889 1657.6538,1322 L 1639.1108,1322 C 1637.2696,1318.3177 1636.086,1314.0108 1635.5601,1309.0791 M 1634.0806,1269.4287 C 1627.6365,1272.059 1617.9705,1274.2946 1605.0825,1276.1357 C 1597.7836,1277.1879 1592.6219,1278.3715 1589.5972,1279.6865 C 1586.5724,1281.0017 1584.2381,1282.9414 1582.5942,1285.5059 C 1580.9503,1288.0046 1580.1284,1290.7992 1580.1284,1293.8896 C 1580.1284,1298.624 1581.9038,1302.5694 1585.4546,1305.7256 C 1589.0711,1308.8818 1594.3315,1310.46 1601.2358,1310.46 C 1608.0743,1310.46 1614.1567,1308.9805 1619.4829,1306.0215 C 1624.809,1302.9968 1628.7214,1298.8871 1631.2202,1293.6924 C 1633.127,1289.6813 1634.0805,1283.7634 1634.0806,1275.9385 L 1634.0806,1269.4287 M 1789.4304,1221.404 L 1836.2944,1321.394 C 1837.5064,1324.222 1840.3344,1325.232 1843.1624,1325.232 C 1844.7784,1325.232 1846.3944,1324.828 1847.8084,1324.222 C 1850.6364,1323.01 1853.0604,1320.586 1853.0604,1317.354 C 1853.0604,1316.142 1852.8584,1315.132 1852.2524,1313.92 L 1801.1464,1208.274 C 1798.5204,1203.022 1795.0864,1200.396 1789.4304,1200.396 C 1783.7744,1200.396 1780.3404,1203.022 1777.7144,1208.274 L 1726.6084,1313.92 C 1726.0024,1315.132 1725.8004,1316.142 1725.8004,1317.354 C 1725.8004,1320.586 1728.2244,1323.01 1731.0524,1324.222 C 1732.4664,1324.828 1734.0824,1325.232 1735.6984,1325.232 C 1738.5264,1325.232 1741.3544,1324.222 1742.5664,1321.394 L 1789.4304,1221.404 M 1954.4399,1322 L 1937.9683,1322 L 1937.9683,1177.4043 L 1955.7222,1177.4043 L 1955.7222,1228.9893 C 1963.2182,1219.5864 1972.7856,1214.8849 1984.4243,1214.8848 C 1990.8683,1214.8849 1996.9506,1216.2 2002.6714,1218.8301 C 2008.4578,1221.3946 2013.1921,1225.044 2016.8745,1229.7783 C 2020.6225,1234.447 2023.5486,1240.102 2025.6528,1246.7432 C 2027.7569,1253.3845 2028.809,1260.4861 2028.8091,1268.0479 C 2028.809,1285.9991 2024.3705,1299.8734 2015.4937,1309.6709 C 2006.6166,1319.4684 1995.9643,1324.3672 1983.5366,1324.3672 C 1971.1746,1324.3672 1961.4757,1319.2054 1954.4399,1308.8818 L 1954.4399,1322 M 1954.2427,1268.8369 C 1954.2426,1281.3962 1955.9523,1290.4704 1959.3716,1296.0596 C 1964.9607,1305.1996 1972.5226,1309.7695 1982.0571,1309.7695 C 1989.8162,1309.7695 1996.5232,1306.416 2002.1782,1299.709 C 2007.8331,1292.9362 2010.6606,1282.8757 2010.6606,1269.5273 C 2010.6606,1255.8503 2007.9317,1245.7569 2002.4741,1239.2471 C 1997.0821,1232.7374 1990.5395,1229.4825 1982.8462,1229.4824 C 1975.087,1229.4825 1968.38,1232.8689 1962.7251,1239.6416 C 1957.0701,1246.3487 1954.2426,1256.0805 1954.2427,1268.8369"
     id="text36" />
  <path
     style="font-size:202px;font-style:normal;font-weight:normal;text-anchor:middle;fill:#000000;stroke:#000000;stroke-width:0.025in;font-family:Times"
     d="M 2766.1377,4400.4126 C 2759.5621,4406.0018 2753.2167,4409.9471 2747.1016,4412.2485 C 2741.052,4414.55 2734.5423,4415.7007 2727.5723,4415.7007 C 2716.0651,4415.7007 2707.221,4412.9061 2701.04,4407.3169 C 2694.859,4401.662 2691.7685,4394.4618 2691.7686,4385.7163 C 2691.7685,4380.5874 2692.9193,4375.9188 2695.2207,4371.7104 C 2697.5879,4367.4364 2700.6455,4364.0171 2704.3936,4361.4526 C 2708.2073,4358.8882 2712.4814,4356.9485 2717.2158,4355.6333 C 2720.7008,4354.7128 2725.9612,4353.8251 2732.9971,4352.9702 C 2747.3316,4351.2606 2757.8853,4349.2222 2764.6582,4346.855 C 2764.7239,4344.4221 2764.7568,4342.8769 2764.7568,4342.2192 C 2764.7568,4334.9862 2763.08,4329.8902 2759.7266,4326.9312 C 2755.1894,4322.9202 2748.4495,4320.9146 2739.5068,4320.9146 C 2731.1559,4320.9146 2724.9749,4322.3941 2720.9639,4325.353 C 2717.0185,4328.2463 2714.0924,4333.4081 2712.1855,4340.8384 L 2694.8262,4338.4712 C 2696.4043,4331.0409 2699.0016,4325.0572 2702.6182,4320.52 C 2706.2347,4315.9173 2711.4622,4312.3994 2718.3008,4309.9663 C 2725.1393,4307.4677 2733.0628,4306.2184 2742.0713,4306.2183 C 2751.0139,4306.2184 2758.2799,4307.2705 2763.8691,4309.3745 C 2769.4582,4311.4788 2773.5679,4314.1419 2776.1982,4317.3638 C 2778.8284,4320.5201 2780.6695,4324.5312 2781.7217,4329.397 C 2782.3134,4332.4218 2782.6093,4337.8795 2782.6094,4345.77 L 2782.6094,4369.4419 C 2782.6093,4385.9465 2782.9709,4396.4015 2783.6943,4400.8071 C 2784.4833,4405.147 2785.9957,4409.3224 2788.2314,4413.3335 L 2769.6885,4413.3335 C 2767.8472,4409.6512 2766.6637,4405.3442 2766.1377,4400.4126 M 2764.6582,4360.7622 C 2758.2141,4363.3925 2748.5481,4365.6281 2735.6602,4367.4692 C 2728.3613,4368.5214 2723.1995,4369.705 2720.1748,4371.02 C 2717.15,4372.3352 2714.8157,4374.2749 2713.1719,4376.8394 C 2711.528,4379.3381 2710.706,4382.1327 2710.7061,4385.2231 C 2710.706,4389.9575 2712.4814,4393.9029 2716.0322,4397.0591 C 2719.6487,4400.2153 2724.9091,4401.7935 2731.8135,4401.7935 C 2738.652,4401.7935 2744.7343,4400.314 2750.0605,4397.355 C 2755.3866,4394.3303 2759.2991,4390.2206 2761.7979,4385.0259 C 2763.7047,4381.0148 2764.6581,4375.0969 2764.6582,4367.272 L 2764.6582,4360.7622"
     id="text38" />
  <path
     style="font-size:202px;font-style:normal;font-weight:normal;text-anchor:middle;fill:#000000;stroke:#000000;stroke-width:0.025in;font-family:Times"
     d="M 2711.0513,5196 L 2694.5796,5196 L 2694.5796,5051.4043 L 2712.3335,5051.4043 L 2712.3335,5102.9893 C 2719.8296,5093.5864 2729.3969,5088.8849 2741.0356,5088.8848 C 2747.4796,5088.8849 2753.5619,5090.2 2759.2827,5092.8301 C 2765.0691,5095.3946 2769.8035,5099.044 2773.4858,5103.7783 C 2777.2338,5108.447 2780.1599,5114.102 2782.2642,5120.7432 C 2784.3682,5127.3845 2785.4203,5134.4861 2785.4204,5142.0479 C 2785.4203,5159.9991 2780.9818,5173.8734 2772.105,5183.6709 C 2763.2279,5193.4684 2752.5756,5198.3672 2740.1479,5198.3672 C 2727.7859,5198.3672 2718.087,5193.2054 2711.0513,5182.8818 L 2711.0513,5196 M 2710.854,5142.8369 C 2710.854,5155.3962 2712.5636,5164.4704 2715.9829,5170.0596 C 2721.5721,5179.1996 2729.1339,5183.7695 2738.6685,5183.7695 C 2746.4275,5183.7695 2753.1345,5180.416 2758.7896,5173.709 C 2764.4444,5166.9362 2767.2719,5156.8757 2767.272,5143.5273 C 2767.2719,5129.8503 2764.543,5119.7569 2759.0854,5113.2471 C 2753.6934,5106.7374 2747.1508,5103.4825 2739.4575,5103.4824 C 2731.6984,5103.4825 2724.9913,5106.8689 2719.3364,5113.6416 C 2713.6814,5120.3487 2710.854,5130.0805 2710.854,5142.8369"
     id="text40" />
  <path
     style="font-size:202px;font-style:normal;font-weight:normal;text-anchor:middle;fill:#000000;stroke:#000000;stroke-width:0.025in;font-family:Times"
     d="M 124.83919,4304.1797 L 108.07161,4304.1797 L 108.07161,4260.9785 L 29.362625,4260.9785 L 29.362625,4244.4082 L 124.83919,4244.4082 L 124.83919,4304.1797 M 274.16927,4333.0791 C 267.59367,4338.6683 261.2483,4342.6136 255.13313,4344.915 C 249.0836,4347.2165 242.57384,4348.3672 235.60384,4348.3672 C 224.09664,4348.3672 215.25258,4345.5726 209.07161,4339.9834 C 202.89061,4334.3285 199.80012,4327.1283 199.80013,4318.3828 C 199.80012,4313.2539 200.95083,4308.5853 203.25227,4304.377 C 205.61945,4300.1029 208.67706,4296.6836 212.42513,4294.1191 C 216.2389,4291.5547 220.51299,4289.615 225.24739,4288.2998 C 228.73238,4287.3793 233.99279,4286.4916 241.02864,4285.6367 C 255.36321,4283.9271 265.91691,4281.8887 272.68977,4279.5215 C 272.75545,4277.0886 272.78833,4275.5434 272.78841,4274.8857 C 272.78833,4267.6527 271.11157,4262.5567 267.75813,4259.5977 C 263.22095,4255.5867 256.48105,4253.5811 247.53841,4253.5811 C 239.18745,4253.5811 233.00646,4255.0606 228.99544,4258.0195 C 225.05009,4260.9128 222.12399,4266.0746 220.21712,4273.5049 L 202.85774,4271.1377 C 204.43586,4263.7074 207.03318,4257.7237 210.64973,4253.1865 C 214.26625,4248.5838 219.49378,4245.0659 226.33235,4242.6328 C 233.17085,4240.1342 241.09435,4238.8849 250.10286,4238.8848 C 259.0455,4238.8849 266.31144,4239.937 271.90071,4242.041 C 277.48982,4244.1453 281.59952,4246.8084 284.22981,4250.0303 C 286.85993,4253.1866 288.70107,4257.1977 289.75325,4262.0635 C 290.34495,4265.0883 290.64085,4270.546 290.64095,4278.4365 L 290.64095,4302.1084 C 290.64085,4318.613 291.0025,4329.0681 291.72591,4333.4736 C 292.51487,4337.8135 294.02724,4341.9889 296.26302,4346 L 277.72005,4346 C 275.87882,4342.3177 274.69523,4338.0108 274.16927,4333.0791 M 272.68977,4293.4287 C 266.24569,4296.059 256.57968,4298.2946 243.69173,4300.1357 C 236.39285,4301.1879 231.23108,4302.3715 228.20638,4303.6865 C 225.1816,4305.0017 222.8473,4306.9414 221.20345,4309.5059 C 219.55954,4312.0046 218.7376,4314.7992 218.73763,4317.8896 C 218.7376,4322.624 220.51299,4326.5694 224.0638,4329.7256 C 227.6803,4332.8818 232.94071,4334.46 239.84505,4334.46 C 246.68353,4334.46 252.76589,4332.9805 258.09212,4330.0215 C 263.41822,4326.9968 267.33065,4322.8871 269.82942,4317.6924 C 271.73624,4313.6813 272.68969,4307.7634 272.68977,4299.9385 L 272.68977,4293.4287"
     id="text42" />
  <path
     style="font-size:202px;font-style:normal;font-weight:normal;text-anchor:middle;fill:#000000;stroke:#000000;stroke-width:0.025in;font-family:Times"
     d="M 1595.5012,4307.6318 L 1612.9592,4309.9004 C 1611.0522,4321.9336 1606.1535,4331.3695 1598.2629,4338.208 C 1590.438,4344.9808 1580.8049,4348.3672 1569.3635,4348.3672 C 1555.0288,4348.3672 1543.4888,4343.6986 1534.7434,4334.3613 C 1526.0637,4324.9584 1521.7239,4311.5114 1521.7239,4294.0205 C 1521.7239,4282.7107 1523.5979,4272.8145 1527.3459,4264.332 C 1531.094,4255.8497 1536.7818,4249.5043 1544.4094,4245.2959 C 1552.1027,4241.0219 1560.4536,4238.8849 1569.4622,4238.8848 C 1580.8377,4238.8849 1590.1421,4241.7781 1597.3752,4247.5645 C 1604.6082,4253.2852 1609.244,4261.4389 1611.2825,4272.0254 L 1594.0217,4274.6885 C 1592.3778,4267.6527 1589.4517,4262.3595 1585.2434,4258.8086 C 1581.1008,4255.2579 1576.0705,4253.4825 1570.1526,4253.4824 C 1561.2098,4253.4825 1553.9439,4256.7045 1548.3547,4263.1484 C 1542.7655,4269.5268 1539.9709,4279.6531 1539.9709,4293.5273 C 1539.9709,4307.599 1542.6669,4317.8239 1548.0588,4324.2021 C 1553.4507,4330.5804 1560.4865,4333.7695 1569.1663,4333.7695 C 1576.1362,4333.7695 1581.9556,4331.6325 1586.6243,4327.3584 C 1591.2928,4323.0843 1594.2518,4316.5088 1595.5012,4307.6318"
     id="text44" />
  <path
     style="fill:none;fill-rule:evenodd;stroke:#000000;stroke-width:29;stroke-linecap:butt;stroke-linejoin:miter;stroke-opacity:1;stroke-miterlimit:4;stroke-dasharray:none"
     d="M 1044.6145,3532.4819 C 1548.6109,3441.5041 1838.3489,3638.7445 1557.3855,4155.1325"
     id="path2468"
     sodipodi:nodetypes="cc" />
  <path
     sodipodi:nodetypes="cc"
     id="path3240"
     d="M 2929.2732,3559.1486 C 3811.8062,4322.8007 3425.6981,4772.5817 2846.8634,5069.992"
     style="fill:none;fill-rule:evenodd;stroke:#000000;stroke-width:29;stroke-linecap:butt;stroke-linejoin:miter;stroke-miterlimit:4;stroke-dasharray:none;stroke-opacity:1" />
</svg>
